<svg xmlns="http://www.w3.org/2000/svg" height="1024" preserveAspectRatio="none" style="display: block;" version="1.1" viewBox="0 0 2048 2048" width="1024">
<path d="M 0 0 L 2048 0 L 2048 2048 L 0 2048 L 0 0 z" fill="rgb(255,255,255)" transform="translate(0,0)"></path>
<path d="M 318.854 1405.16 C 317.161 1396.53 315.895 1377.33 315.045 1368.11 C 312.47 1341.25 310.221 1314.35 308.299 1287.42 C 296.05 1129.77 294.194 971.483 302.746 813.587 C 306.435 746.197 311.149 674.186 322.904 608.152 C 339.853 513.103 385.02 429.457 466.304 374.479 C 553.507 315.499 655.653 310.602 757.214 304.415 C 868.56 297.772 980.135 295.783 1091.65 298.454 C 1159.77 299.164 1227.87 301.728 1295.85 306.144 C 1337.72 308.767 1387.05 312.135 1428.15 319.338 C 1517.06 335.075 1594.91 383.001 1646.13 457.682 C 1709.23 549.704 1715.92 661.665 1724.3 769.675 C 1733.11 877.385 1736.25 985.484 1733.69 1093.52 C 1732.12 1147.52 1729.46 1201.49 1725.73 1255.38 C 1723.99 1287.72 1721.78 1320.04 1719.09 1352.31 C 1718.07 1364.22 1717.1 1381.99 1715.05 1393.17 C 1707.84 1498.52 1671.88 1596.18 1590.44 1666.28 C 1553.9 1697.74 1496.94 1725.5 1450.21 1736.73 C 1381.13 1753.33 1298.81 1759.7 1228.02 1763.61 C 1067.87 1772.21 907.34 1771.12 747.317 1760.37 C 699.559 1756.75 644.397 1752.4 598.26 1741.78 C 525.774 1725.1 454.339 1687.11 405.98 1629.94 C 359.951 1575.52 332.869 1506.7 322.975 1436.56 C 321.704 1427.55 319.392 1413.96 318.854 1405.16 z" fill="rgb(37,99,235)" transform="translate(0,0)"></path>
<path d="M 318.854 1405.16 C 319.312 1402.16 319.435 1399.41 319.623 1396.39 L 321.055 1395.54 C 326.33 1408.41 331.037 1431.82 335.601 1446.11 C 339.998 1459.88 342.726 1465.97 348.44 1479.38 C 378.54 1551.6 432.659 1611.21 501.645 1648.13 C 569.447 1684.94 635.914 1694.55 711.549 1701.73 C 775.767 1707.33 840.159 1710.7 904.61 1711.86 C 1007.87 1714.74 1111.2 1713.55 1214.36 1708.29 C 1293.68 1704.27 1382.2 1698.1 1458.29 1676.51 C 1581.78 1641.46 1676.88 1539.65 1703.98 1414.18 C 1705.07 1409.12 1709.42 1389.02 1711.34 1385.46 C 1712.74 1389.8 1707.99 1396.3 1709.28 1402.14 L 1711.1 1402.74 C 1714.08 1399.3 1713.98 1390.73 1714.33 1385.88 L 1715.05 1393.17 C 1707.84 1498.52 1671.88 1596.18 1590.44 1666.28 C 1553.9 1697.74 1496.94 1725.5 1450.21 1736.73 C 1381.13 1753.33 1298.81 1759.7 1228.02 1763.61 C 1067.87 1772.21 907.34 1771.12 747.317 1760.37 C 699.559 1756.75 644.397 1752.4 598.26 1741.78 C 525.774 1725.1 454.339 1687.11 405.98 1629.94 C 359.951 1575.52 332.869 1506.7 322.975 1436.56 C 321.704 1427.55 319.392 1413.96 318.854 1405.16 z" fill="rgb(4,38,253)" transform="translate(0,0)"></path>
<path d="M 1422.35 635.208 C 1424.99 634.961 1427.63 634.792 1430.28 634.702 C 1449.33 633.979 1466.58 639.293 1480.58 652.555 C 1493.4 664.858 1500.82 681.74 1501.22 699.503 C 1501.56 712.921 1498.03 726.153 1491.04 737.614 C 1483.06 750.819 1459.81 771.75 1448.01 783.519 L 1384.89 847.269 C 1275.12 958.493 1177.18 1080.8 1092.66 1212.23 C 1070.39 1246.99 1048.99 1282.3 1028.48 1318.11 C 1016.58 1339.05 990.433 1391.14 976.35 1405.95 C 958.511 1424.69 933.847 1435.42 907.972 1435.69 C 893.859 1435.81 879.885 1432.9 866.998 1427.14 C 830.44 1410.85 822.133 1385.12 806.006 1351.56 C 778.583 1294.5 738.565 1244.34 693.203 1200.27 C 672.687 1180.03 650.669 1161.38 627.337 1144.46 C 612.367 1133.58 593.71 1122.14 580.153 1109.76 C 562.073 1093.26 551.32 1070.22 550.276 1045.76 C 549.098 1020 558.322 994.849 575.872 975.956 C 593.46 956.726 617.278 946.472 643.253 945.565 C 655.901 945.156 668.504 947.26 680.332 951.754 C 692.689 956.474 709.198 966.687 720.693 973.901 C 787.54 1015.85 846.799 1067.15 903.949 1121.12 C 1015.67 958.195 1176.23 801.775 1336.3 686.818 C 1358.92 670.571 1396.28 641.16 1422.35 635.208 z" fill="rgb(255,255,255)" transform="translate(0,0)"></path>
<metadata><recraft-signature>{"signed_by": "recraft", "signature_b64": "Keo03Jf3p8g9IzIau+gi9JXAbcPNPQhSDL+VRhh8iH0pDJot85moaiEaNVeiec0B7AOepr4nCbd3vD9XBkrUCQ==", "signing_algo": "Ed25519", "generation_timestamp": 1783420744, "identifier": "551b956d-88b2-484f-8fa9-94f6982bfc6c"}</recraft-signature></metadata></svg>