<svg xmlns="http://www.w3.org/2000/svg" height="1024" preserveAspectRatio="none" style="display: block;" version="1.1" viewBox="0 0 2048 2048" width="1024">
<path d="M 0 0 L 2048 0 L 2048 2048 L 0 2048 L 0 0 z" fill="rgb(255,255,255)" transform="translate(0,0)"></path>
<path d="M 793.529 301.417 C 816.124 298.992 848.556 300.804 872.161 300.824 L 1025.14 300.933 L 1165.3 300.862 C 1198.43 300.832 1239.61 299.624 1271.83 302.146 C 1380.11 310.313 1482.92 353.005 1565.13 423.945 C 1671.46 515.831 1736.46 637.579 1748.6 778.635 C 1751.35 810.521 1750.01 850.126 1750 882.719 L 1750.01 1044.37 L 1750.06 1183.7 C 1750.08 1221.68 1751.04 1259.68 1746.62 1297.48 C 1721.61 1511.15 1555.66 1692.04 1345.97 1738.41 C 1317.44 1744.72 1290.33 1747.83 1261.25 1749.92 C 1167.98 1752.15 1069.88 1750.87 976.364 1750.79 L 872.942 1750.69 C 841.435 1750.76 806.424 1751.28 775.051 1748.64 C 663.961 1739.76 558.886 1694.55 476.06 1619.99 C 373.92 1530.38 311.568 1403.85 302.721 1268.26 C 300.856 1235.5 301.632 1198.43 301.633 1165.26 L 301.674 999.564 L 301.553 866.194 C 301.509 835.223 300.684 800.706 303.552 770.109 C 314.65 660.306 360.165 556.819 433.597 474.432 C 525.73 371.107 655.292 308.829 793.529 301.417 z" fill="rgb(37,99,235)" transform="translate(0,0)"></path>
<path d="M 1413.69 645.352 C 1424.19 644.502 1434.61 647.685 1442.83 654.252 C 1457.81 666.423 1463.07 690.261 1452.9 706.014 C 1442.08 722.767 1422.59 740.255 1408.78 754.808 C 1390.07 774.915 1371.56 795.217 1353.27 815.71 C 1254.17 926.64 1166.15 1046.99 1090.46 1175.04 C 1072.58 1205.24 1055.86 1236.12 1040.35 1267.6 C 1022.14 1304.5 1010.3 1339.39 983.299 1372.5 C 958.322 1403.13 919.422 1414.69 886.738 1386.9 C 877.007 1378.63 864.766 1358.41 857.58 1347.11 C 834.261 1310.41 810.5 1275.14 780.683 1243.28 C 757.556 1217.54 736.375 1195.98 710.513 1172.77 C 689.207 1153.71 669.261 1137.46 646.847 1119.96 C 623.288 1101.56 588.64 1084.62 588.871 1051.31 C 589.177 1007.41 650.905 981.739 687.963 983.59 C 783.659 988.371 855.104 1074.41 916.708 1138.36 C 933.003 1116.93 948.669 1094.9 964.939 1073.55 C 1072.25 932.738 1191.52 796.771 1333.11 689.408 C 1353.33 674.081 1388.78 648.208 1413.69 645.352 z" fill="rgb(255,255,255)" transform="translate(0,0)"></path>
<metadata><recraft-signature>{"signed_by": "recraft", "signature_b64": "1bKjSMEEo8OgrKYmlUImNihmkcjRGioGdvxsVyoUACeTvczvzSkgI/THTYHfDbaFCKp/5r1s7n0w37jK4O0EAw==", "signing_algo": "Ed25519", "generation_timestamp": 1783420747, "identifier": "8fbed4e8-2ebf-496f-ab97-0aa9df6b4183"}</recraft-signature></metadata></svg>